# xmcd
#
# Track frame offsets: 
#        150
#        22469
#        40934
#        57633
#        77548
#        96597
#        115142
#        132726
#        148358
#        166658
#        189762
#        211219
#        228351
#        243451
#        260038
#        278111
#
# Disc length: 3863 seconds
#
# Revision: 0
# Processed by: cddbd v1.5.2PL0 Copyright (c) Steve Scherf et al.
# Submitted via: ExactAudioCopyFreeDBPlugin 1.0
#
DISCID=f30f1510
DTITLE=區瑞強 - 阿卡喜欢的歌
DYEAR=1900
DGENRE=Country
TTITLE0=寂寞
TTITLE1=相识非偶然
TTITLE2=眼泪为你流
TTITLE3=幸运是我
TTITLE4=侬本多情
TTITLE5=但愿人长久
TTITLE6=你令我快乐过
TTITLE7=大地恩情
TTITLE8=等
TTITLE9=谁令你心痴
TTITLE10=我愿意
TTITLE11=柔柔河畔
TTITLE12=每当变换时
TTITLE13=请跟我来
TTITLE14=这一曲送给你
TTITLE15=故乡的雨
EXTD=
EXTT0=
EXTT1=
EXTT2=
EXTT3=
EXTT4=
EXTT5=
EXTT6=
EXTT7=
EXTT8=
EXTT9=
EXTT10=
EXTT11=
EXTT12=
EXTT13=
EXTT14=
EXTT15=
PLAYORDER=
